<svg class="icon" viewBox="0 0 1024 1024" xmlns="http://www.w3.org/2000/svg" width="200" height="200"><path d="M198.529 466.723l-1.684-5.189-1.348-6.805-.942-3.738v-15.329l1.617-5.996 1.684-6.402 2.156-6.636 2.931-7.446 3.874-7.747 5.457-7.749v-5.424l.539-5.087.809-6.906 2.358-7.715 2.156-8.388 1.718-3.874 1.988-3.571 2.56-4.009 2.763-2.931v-19.202l1.617-9.837 1.617-11.454 2.896-13.746 3.976-14.216 2.965-7.883 2.931-8.523 3.2-7.984 3.841-8.523 3.907-9.332 4.515-8.759 5.053-9.365 6.4-9.298 2.932-5.323 3.166-4.413 6.839-9.871 7.007-9.837 8.018-10.107 8.557-9.904 9.298-9.703 9.702-9.971 11.724-10.78 7.479-6.536 9.062-7.075 9.196-6.266 9.972-5.996 9.568-5.323 10.78-4.379 11.454-5.457 11.387-3.74 11.387-3.874 12.263-3.841 12.262-2.93 12.936-2.393 13.071-2.156 12.869-1.718 12.936-1.752 13.745-.774h40.628l13.543 1.718 13.611 1.617 13.879 1.449 12.869 3.099 13.61 2.897 12.769 3.301 13.981 3.774 12.8 4.514 12.263 5.188 13.072 5.457 11.959 5.997 11.589 6.67 11.353 7.344 9.835 6.771 4.515 3.875 4.783 2.762 9.098 7.749 7.679 7.479 7.614 7.714 7.48 8.523 6.129 8.254 7.278 8.523 5.121 9.163 5.154 8.153 5.491 9.466 4.516 8.253 7.679 17.452 3.775 9.028 2.93 8.422 2.931 9.029 2.628 8.556 1.885 7.311 2.359 8.658 4.177 15.429 2.662 13.476 1.717 13.071 1.484 10.51 2.357 15.969.539 2.56 1.887 2.897 5.052 8.288 3.235 5.558 2.897 5.895 3.706 6.233 3.232 7.479 2.09 7.714 2.291 8.388 1.752 8.659.81 4.244.674 5.188v4.549l-.674 4.547v5.593l-1.349 5.457-2.426 10.511-2.761 5.322-2.023 5.997v1.483l.945 1.853 2.761 4.412 11.993 17.721 9.501 13.272 4.515 8.962 6.13 9.702 5.325 10.646 6.128 11.453 6.133 12.803 6.907 14.519 3.873 8.928 3.57 8.623 3.101 9.231 3.031 8.22 2.29 8.692 2.361 8.117 2.962 15.869 2.36 16.238 1.616 14.35v20.281l-1.077 7.209-1.551 12.365-2.155 11.184-3.303 10.106-1.213 4.142-2.29 4.92-1.954 3.471-2.558 4.277-2.292 2.664-2.898 3.469-2.56 2.762-2.762 2.425-3.303 1.45-2.963 1.449-2.426.806H912.319l-2.391-.806-4.549-2.225-2.088-1.48-2.157-1.619-2.392-2.123-2.392-2.391-3.974-4.381-4.717-6.264-3.705-6.404-3.706-5.185-3.605-5.997-5.086-10.646-5.729-11.084-.674-.369h-.942l-2.358 1.719-1.348 2.929-2.222 3.571-3.91 10.814-5.861 15.326-7.547 18.362-5.659 9.199-5.962 9.566-7.04 10.779-7.481 10.581-3.841 4.783-4.647 5.185-10.68 10.512.943.943 1.449 1.483 5.322 3.168 22.234 10.644 9.703 5.459 9.232 5.323 9.163 6.669 8.152 6.94 3.974 3.064 2.966 3.606 3.031 4.109 2.562 4.551 1.345 3.736 1.686 4.516.675 3.842.806 4.547-.806 3.066v3.031l-.675 3.233-1.686 2.9-.671 2.289-1.484 2.762-4.043 5.492-3.706 4.412-2.895 3.301-2.427 2.426-6.132 4.515-6.939 3.875-7.412 3.739-7.883 3.572-8.893 3.434-4.718 1.484-4.244 1.213-10.241 2.39-10.645 2.258-10.647 2.291-11.586 1.852-11.994.506-12.264 1.482h-38.066l-13.745-.809-12.802-1.179-13.746-1.852-13.676-1.482-14.419-2.022-13.946-3.435-13.611-2.697-13.543-3.838-13.879-4.92-13.611-4.143-7.142-2.392-6.401-2.291-4.042-1.551-3.974-.809h-11.321l-13.071-.941-6.636-.676-8.524-.941-5.457 4.918-7.478 4.683-10.107 4.951-11.185 6.131-6.805 3.303-7.074 2.66-15.699 6.402-8.523 2.121-8.928 2.426-12.397 2.358-7.748.674-8.221.675-8.556.942-9.972.406h-40.729l-23.009-.406-22.302-2.291-11.32-1.547-10.915-1.619-10.645-1.618-10.645-2.121-9.871-3.201-9.872-2.258-8.893-3.603-8.422-3.303-7.816-3.771-6.805-4.112-6.804-4.918-2.292-2.425-3.032-2.899-2.291-2.558-2.088-2.899-1.887-2.963-1.482-2.898-2.122-6.266-.775-3.201-.943-3.604v-3.302l.943-3.739v-3.74l.775-3.74v-7.443l.37-4.012 1.752-4.547 1.482-4.512 2.696-5.459 1.954-2.123 1.616-2.39 4.246-5.188 3.368-2.697 3.167-1.852 2.931-2.392 4.682-1.481 3.706-2.224 4.649-2.424 5.323-1.586 5.322-1.615 6.132-1.315 5.862-.81 6.94-.942 7.479-.539 1.987-.674h.404l.943-.808v-.875l-1.347-1.887-4.009-1.889-9.972-8.623-6.669-5.322-7.75-6.805-7.815-7.582-8.153-9.736-9.298-10.912-3.503-5.863-4.649-6.129-3.976-7.074-3.57-7.717-4.851-7.313-3.167-8.42-3.74-8.355-3.739-9.365-2.763-8.893-2.56-11.051-.808-.404h-.775l-.404-.809h-.943l-1.584.809-.808.404-1.079 1.854-.404 2.256-.808 2.023-1.415 3.301-4.582 8.152-2.358 4.918-3.739 4.246-4.009 5.186-4.38 5.728-4.649 5.088-5.457 4.918-5.087 4.649-5.559 3.603-6.131 3.875L104 752.67l-6.939 1.752-6.806.639h-1.617l-1.55-.639-1.213-2.693-2.021-1.317-2.627-6.4-1.618-3.471-1.751-4.92-1.448-5.185-.775-5.055-2.157-11.588-.808-6.805v-22.369l.808-16.642 1.348-8.559 1.584-8.756 1.448-9.467 2.559-8.795 2.898-10.138 2.965-9.838 3.975-10.139 3.74-9.703 5.154-9.871L104 572.066l5.862-10.005 6.906-10.782 7.041-9.701 7.344-10.781 6.132-7.479 7.849-8.658 8.253-8.657 3.841-4.109 4.683-4.685 6.771-5.894 6.94-5.963 11.318-10.14 8.557-6.233z"/></svg>